# xmcd
#
# Track frame offsets:
#	150
#	12311
#	25549
#	39728
#	51382
#	64335
#	76768
#	90008
#	102564
#	113427
#	124457
#	138017
#
# Disc length: 1989 seconds
# Revision: 1
# Processed by: cddbd v1.5.2PL0 Copyright (c) Steve Scherf et al.
# Submitted via: dBpowerAMP V12.0
#
DISCID=9007c30c
DTITLE=Various Artist - John Lee Hooker Birth Of A Legend
DYEAR=1957
DGENRE=Blues
TTITLE0=Honest I Do - Honest I Do
TTITLE1=Muddy Waters - Walking Blues
TTITLE2=Howlin' Wolf - Smoke Stack Lightnin'
TTITLE3=Sonny Boy Williamson - Don't Start Me To Talkin'
TTITLE4=Big Bill Broonzy - How You Want It Done?
TTITLE5=Elmore James - Dust My Broom (I Believe My Time Ain't Long)
TTITLE6=Eddie Taylor - Ride 'Em On Down
TTITLE7=Big Joe Williams - Baby Please Don't Go
TTITLE8=Little Junior's Blue Flames - Mystery Train
TTITLE9=J.B. Lenoir - Mama Talk To Your Daughter
TTITLE10=Lightnin' Hopkins - Katie Mae Blues
TTITLE11=Bo Diddley - Who Do You Love?
EXTD=
EXTT0=
EXTT1=
EXTT2=
EXTT3=
EXTT4=
EXTT5=
EXTT6=
EXTT7=
EXTT8=
EXTT9=
EXTT10=
EXTT11=
PLAYORDER=
